<svg xmlns="http://www.w3.org/2000/svg" xmlns:xlink="http://www.w3.org/1999/xlink" viewBox="0,0,256,256" width="100px" height="100px" fill-rule="nonzero"><g fill="none" fill-rule="nonzero" stroke="none" stroke-width="none" stroke-linecap="none" stroke-linejoin="none" stroke-miterlimit="10" stroke-dasharray="" stroke-dashoffset="0" font-family="none" font-weight="none" font-size="none" text-anchor="none" style="mix-blend-mode: normal"><g transform="scale(2.56,2.56)"><rect x="41.114" y="38.759" width="7.876" height="2.343" fill="#0d47a1" stroke="none" stroke-width="1" stroke-linecap="butt" stroke-linejoin="miter"></rect><path d="M68.019,1.991c-4.905,5.988 -10.095,9.899 -13.809,12.222l-0.21,-1.213h-4l-1.228,0.429l-1.715,-2.429h-4.057l-1.964,2.455l-1.146,-0.497l-2.361,0.054l-0.548,0.315l-10.962,-3.336l-4.019,4.958v8.551l-0.019,-0.009v8.551l4.019,4.958l12.342,-3.756c0.362,1.394 13.623,1.679 13.658,-1.244c3.741,2.198 10.568,6.361 16,13c0,0 11.014,-6 11.014,-21.525c0,-15.475 -10.995,-21.484 -10.995,-21.484z" fill="#d1dae7" stroke="none" stroke-width="1" stroke-linecap="butt" stroke-linejoin="miter"></path><path d="M71.81,4.791l-6.052,6.278c0,0 3.878,4.431 4.242,7.931h-18l1.745,-4.896l5.005,-2.912l9.269,-9.201z" fill="#b1bdd0" stroke="none" stroke-width="1" stroke-linecap="butt" stroke-linejoin="miter"></path><path d="M51.168,28.5h18.627c0,0 -3.28,6.319 -4.038,6.909l6.341,6.434l-4.098,3.157c0,0 -14.905,-12.455 -16.453,-13.228z" fill="#b1bdd0" stroke="none" stroke-width="1" stroke-linecap="butt" stroke-linejoin="miter"></path><path d="M26.5,36.75v-7.998l0.5,-0.752h11.994l-0.448,3.55l-0.025,1.917z" fill="#b1bdd0" stroke="none" stroke-width="1" stroke-linecap="butt" stroke-linejoin="miter"></path><path d="M26.5,10.5v7.829h11.579l-0.835,-1.972l-0.56,-3.12z" fill="#b1bdd0" stroke="none" stroke-width="1" stroke-linecap="butt" stroke-linejoin="miter"></path><path d="M53.464,13.139c0,0 0.793,6.503 -6.711,11.166c-5.012,3.114 -2.588,10.372 -2.588,10.372h1.482c0,0 1.117,-2.24 0.875,-4.256c-0.539,-4.487 -10.066,-11.802 -9.605,-16.816l4.007,-0.467c0,0 1.967,5.693 5.873,9.027c3.906,3.334 4.614,5.644 4.745,8.615c0.131,2.971 -2.667,7.287 -2.667,7.287c0,0 0.318,42.527 -4.875,53.933l-5,2l-2.099,3.088l-6.901,-6.088c0,0 12.708,-17.141 11.009,-52.5c0,0 -3.283,-3.558 -2.424,-8.672c0.859,-5.114 10.621,-11.916 10.49,-16.689z" fill="#fa5252" stroke="none" stroke-width="1" stroke-linecap="butt" stroke-linejoin="miter"></path><path d="M46.5,79.5l-10.196,-0.116l2.196,-12.14h8.826z" fill="#0d47a1" stroke="none" stroke-width="1" stroke-linecap="butt" stroke-linejoin="miter"></path><rect x="41.5" y="38.759" width="7.375" height="8.346" fill="#0d47a1" stroke="none" stroke-width="1" stroke-linecap="butt" stroke-linejoin="miter"></rect><path d="M60.5,18.5h1" fill="none" stroke="#24262e" stroke-width="1" stroke-linecap="round" stroke-linejoin="round"></path><path d="M68.019,1.991c-4.905,5.988 -10.095,9.899 -13.809,12.222l-0.21,-1.213h-4l-1.228,0.429l-1.715,-2.429h-4.057l-1.964,2.455l-1.146,-0.497l-2.361,0.054l-0.548,0.315l-10.962,-3.336l-4.019,4.958v8.551l-0.019,-0.009v8.551l4.019,4.958l12.342,-3.756c0.362,1.394 1.108,3.206 2.658,4.756c0,0 1,39 -11,53l6.526,6.638l2.474,-3.638l5,-2c0,0 5,-14 5,-54c0,0 2.965,-3.077 3,-6c3.741,2.198 10.568,6.361 16,13c0,0 11.014,-6 11.014,-21.525c0,-15.475 -10.995,-21.484 -10.995,-21.484z" fill="none" stroke="#24262e" stroke-width="2" stroke-linecap="round" stroke-linejoin="round"></path><path d="M36.5,79.5h10" fill="none" stroke="#24262e" stroke-width="1" stroke-linecap="round" stroke-linejoin="round"></path><path d="M37.5,76.5h9" fill="none" stroke="#24262e" stroke-width="1" stroke-linecap="round" stroke-linejoin="round"></path><path d="M37.5,73.5h9" fill="none" stroke="#24262e" stroke-width="1" stroke-linecap="round" stroke-linejoin="round"></path><path d="M38.5,70.5h8" fill="none" stroke="#24262e" stroke-width="1" stroke-linecap="round" stroke-linejoin="round"></path><path d="M39.5,67.5h8" fill="none" stroke="#24262e" stroke-width="1" stroke-linecap="round" stroke-linejoin="round"></path><path d="M41.5,47.5h7" fill="none" stroke="#24262e" stroke-width="1" stroke-linecap="round" stroke-linejoin="round"></path><path d="M41.5,44.5h7" fill="none" stroke="#24262e" stroke-width="1" stroke-linecap="round" stroke-linejoin="round"></path><path d="M41.5,41.5h7" fill="none" stroke="#24262e" stroke-width="1" stroke-linecap="round" stroke-linejoin="round"></path><path d="M41.5,38.5h7" fill="none" stroke="#24262e" stroke-width="1" stroke-linecap="round" stroke-linejoin="round"></path><path d="M25.67,23.33l1.74,-1.74h12.859l1.502,1.74l-1.758,2.17h-12.22l-2.064,-2.064" fill="#b1bdd0" stroke="none" stroke-width="1" stroke-linecap="butt" stroke-linejoin="miter"></path><path d="M49.734,21.5h21.766l1.83,1.83l-1.888,2.17h-21.442l-1.89,-2.302z" fill="#b1bdd0" stroke="none" stroke-width="1" stroke-linecap="butt" stroke-linejoin="miter"></path><path d="M38.925,33.521c-0.768,-2.447 -1.064,-7.176 5.08,-12.132c5.4,-4.53 5.07,-8.251 5.07,-8.251" fill="none" stroke="#24262e" stroke-width="1" stroke-linecap="round" stroke-linejoin="round"></path><path d="M53.464,14.104c0,0 -0.071,4.277 -5.692,9.226c-5.132,4.52 -4.566,9.163 -3.748,11.176" fill="none" stroke="#24262e" stroke-width="1" stroke-linecap="round" stroke-linejoin="round"></path><path d="M41.901,23.33c-4.06,-4.261 -5.298,-7.335 -4.919,-10.003" fill="none" stroke="#24262e" stroke-width="1" stroke-linecap="round" stroke-linejoin="round"></path><path d="M45.647,34.506c0.621,-1.126 1.879,-4.106 -0.598,-7.838" fill="none" stroke="#24262e" stroke-width="1" stroke-linecap="round" stroke-linejoin="round"></path><path d="M47.921,23.198c3.146,3.281 4.661,7.361 2.845,11.479" fill="none" stroke="#24262e" stroke-width="1" stroke-linecap="round" stroke-linejoin="round"></path><path d="M41.114,13.867c0,0 0.863,3.317 3.935,6.591" fill="none" stroke="#24262e" stroke-width="1" stroke-linecap="round" stroke-linejoin="round"></path><path d="M44.024,34.506h1.623" fill="none" stroke="#24262e" stroke-width="1" stroke-linecap="round" stroke-linejoin="round"></path><path d="M38.172,18.5h-11.672v-8" fill="none" stroke="#24262e" stroke-width="1" stroke-linecap="round" stroke-linejoin="round"></path><path d="M29.086,28.5h-2.586v8" fill="none" stroke="#24262e" stroke-width="1" stroke-linecap="round" stroke-linejoin="round"></path><path d="M38.172,28.5h-5.111" fill="none" stroke="#24262e" stroke-width="1" stroke-linecap="round" stroke-linejoin="round"></path><path d="M65.634,11.192l6.176,-6.175" fill="none" stroke="#24262e" stroke-width="1" stroke-linecap="round" stroke-linejoin="round"></path><path d="M65.758,35.675l6.168,6.169" fill="none" stroke="#24262e" stroke-width="1" stroke-linecap="round" stroke-linejoin="round"></path><path d="M69.796,28.5c-0.782,2.708 -2.182,5.154 -4.039,7.175" fill="none" stroke="#24262e" stroke-width="1" stroke-linecap="round" stroke-linejoin="round"></path><path d="M65.634,11.192c1.918,2.046 3.363,4.54 4.162,7.308" fill="none" stroke="#24262e" stroke-width="1" stroke-linecap="round" stroke-linejoin="round"></path><path d="M40.013,25.5h-12.513l-2,-2l2,-2h12.647" fill="none" stroke="#24262e" stroke-width="1" stroke-linecap="round" stroke-linejoin="round"></path><path d="M49.734,21.5h21.766l2,2l-2,2h-21.604" fill="none" stroke="#24262e" stroke-width="1" stroke-linecap="round" stroke-linejoin="round"></path><path d="M69.796,18.5h-5.296" fill="none" stroke="#24262e" stroke-width="1" stroke-linecap="round" stroke-linejoin="round"></path><path d="M51.889,18.5h5.611" fill="none" stroke="#24262e" stroke-width="1" stroke-linecap="round" stroke-linejoin="round"></path><path d="M69.796,28.5h-18.462" fill="none" stroke="#24262e" stroke-width="1" stroke-linecap="round" stroke-linejoin="round"></path></g></g></svg>